<?xml version="1.0" encoding="UTF-8" standalone="no"?>
<svg xmlns:rdf="http://www.w3.org/1999/02/22-rdf-syntax-ns#" xmlns="http://www.w3.org/2000/svg" height="500" viewBox="0 0 1701 500" width="1701" version="1.1" xmlns:cc="http://creativecommons.org/ns#" xmlns:dc="http://purl.org/dc/elements/1.1/">
<path  fill="#32281f" d="m845.79 495.11c-12.07-13.424-15.577-47.39-7.6788-74.357 2.4056-8.2132 2.4805-8.2203 7.8923-0.75 2.3907 3.3 4.4157 6 4.5 6s2.1093-2.7 4.5-6c5.4118-7.4703 5.4868-7.4632 7.8923 0.75 7.9268 27.064 4.3603 61.223-7.7696 74.415l-4.6945 5.1054-4.6418-5.1628zm-276.67-43.74c-7.3824-5.1709-6.9089-24.119 1.0077-40.324 15.815-32.372 56.786-42.271 106.68-25.773 12.057 3.9869 48.601 21.269 42.697 20.192-45.303-8.2646-98.431 6.2974-126.99 34.808-12.952 12.928-17.615 15.14-23.389 11.096zm551.38-0.242c-1.65-1.0259-7.0525-5.9102-12.006-10.854-28.564-28.511-81.691-43.073-126.99-34.808-5.9039 1.077 30.64-16.205 42.697-20.192 49.892-16.498 90.863-6.5995 106.68 25.773 11.968 24.497 5.3951 49.887-10.375 40.082zm-369.5-64.26c-70.69-52.79-103.4-127.89-63.58-145.97 20.676-9.3904 32.315 5.6696 33.697 43.603 1.7956 49.276 7.2113 65.696 32.816 99.5 5.8064 7.6656 7.4228 10.012 6.8766 9.9837-0.16996-0.009-4.584-3.2088-9.809-7.1109zm189.49 6.1124c0.49372-0.81685 3.4541-4.8602 6.5786-8.9852 25.605-33.804 31.021-50.224 32.816-99.5 1.3823-37.933 13.021-52.993 33.697-43.603 36.966 16.789 8.8967 89.228-53.581 138.28-13.084 10.272-20.579 15.577-19.511 13.81zm-135.98-19.601c-70.699-17.09-64.477-122.5 7.7315-130.98l5.5451-0.65172-7.7088-7.625c-32.66-32.29-24.47-87.27 15.92-106.96 62.415-30.421 115.46 56.974 64.925 106.96l-7.7088 7.625 5.5451 0.65172c64.086 7.532 79.995 97.493 22.182 125.43-13.532 6.5401-34.274 9.9986-32.469 5.4139 13.458-34.175 4.5384-106.11-19.108-154.11l-8.5527-17.362-2.0702 3.3617c-27.794 45.132-41.086 130.36-26.219 168.11 0.88991 2.2599-8.9229 2.3332-18.018 0.13464zm-300.67-0.91043c-9.733-5.2862-6.7754-26.676 5.3649-38.801 21.656-21.629 62.283-19.189 116.99 7.0266 14.569 6.981 16.269 8.1951 8.2233 5.8737-42.402-12.234-84.157-5.2988-109.75 18.229-9.0051 8.2786-15.388 10.629-20.833 7.6718zm682.5-0.40845c-2.2898-1.0397-6.7933-4.3082-10.008-7.2634-25.592-23.528-67.347-30.463-109.75-18.229-8.0456 2.3214-6.3459 1.1072 8.2233-5.8737 54.711-26.215 95.337-28.655 116.99-7.0266 17.604 17.582 13.425 46.967-5.4603 38.392zm-1035.1-6.6048c-8.0945-2.1802-16.53-6.88-22.933-12.777l-5.8412-5.3795-3 1.8432c-39.399 24.26-92.172-17.24-78.862-62.06 1.823-6.14 1.981-5.86-4.78-8.24-36.519-12.87-46.925-61.44-19.117-89.25 6.15-6.15 18.551-13.59 22.654-13.59 2.2999 0 2.2244-0.21841-2.4376-7.0482-28.584-41.87 11.892-98.035 59.89-83.097l5.9552 1.8535-0.46878-8.6035c-2.576-47.343 53.78-75.674 89.2-44.844l3.9637 3.4495 3.7142-7.6329c20.917-42.986 85.392-38.288 100.28 7.3077 0.53209 1.6293 1.3962 1.1383 6.4055-3.6398 27.595-26.321 76.13-14.982 87.72 20.494 0.94567 2.8945 1.8299 5.3964 1.9649 5.5597 0.13501 0.16333 2.3647-1.1333 4.9549-2.8814 45.173-30.487 99.246 16.923 79.014 69.277-0.58759 1.5205-0.26368 1.5799 3.1809 0.58304 42.677-12.35 81.248 37.446 60.404 77.981-6.9013 13.42-7.7706 13.558-14.143 2.2431-72.35-128.5-271.76-192.54-394.91-126.83-143.67 76.66-90 262.89 64.52 223.87 83.009-20.964 107.93-126.96 41.07-174.67-10.52-7.5063 23.732-18.443 43.309-13.829 52.749 12.434 56.011 89.277 4.4355 104.5l-4.1676 1.2301 3.9975 5.0572c33.625 42.538-7.7932 103.28-58.757 86.176-4.096-1.375-7.6048-2.5-7.7971-2.5-0.19236 0-0.66752 3.2249-1.0559 7.1665-3.3439 33.935-35.953 57.001-68.278 48.294zm1370.3 0.017c-22.011-6.0435-37.876-25.129-40.16-48.311-0.3884-3.9416-0.8636-7.1665-1.056-7.1665-0.1923 0-3.701 1.125-7.7971 2.5-50.964 17.108-92.382-43.637-58.757-86.176l3.9975-5.0572-4.1677-1.2301c-51.575-15.223-48.314-92.066 4.4355-104.5 19.577-4.6146 53.83 6.3223 43.309 13.829-66.82 47.676-41.94 153.71 40.98 174.65 154.8 39.04 208.5-147.15 64.8-223.85-123.1-65.709-322.6-1.669-394.9 126.83-6.3724 11.315-7.2417 11.177-14.143-2.2431-20.845-40.535 17.727-90.331 60.404-77.981 3.4445 0.99683 3.7684 0.93746 3.1808-0.58304-20.232-52.354 33.841-99.764 79.014-69.277 2.5902 1.7481 4.8199 3.0447 4.9549 2.8814 0.135-0.16333 1.0192-2.6652 1.9649-5.5597 11.59-35.476 60.126-46.815 87.72-20.494 5.0093 4.7781 5.8734 5.2691 6.4055 3.6398 14.89-45.595 79.366-50.294 100.28-7.3077l3.7142 7.6329 3.9637-3.4495c35.426-30.83 91.78-2.4988 89.2 44.844l-0.4688 8.6035 5.9552-1.8535c47.998-14.939 88.474 41.222 59.89 83.098-4.662 6.8298-4.7376 7.0482-2.4377 7.0482 4.1028 0 16.504 7.4384 22.654 13.588 27.808 27.808 17.402 76.386-19.117 89.247-6.7607 2.3808-6.6031 2.1089-4.78 8.2477 13.31 44.819-39.463 86.315-78.932 62.065l-3-1.8432-5.8412 5.3795c-13.344 12.29-34.018 17.471-51.051 12.794zm-892-68.54c-30.75-21.55-71.65-31.21-111.27-26.28-26.419 3.2903-38.269-5.8395-30.109-23.199 13.81-29.381 65.149-22.082 110.38 15.691 11.335 9.4665 40.887 39.366 38.323 38.773-0.17742-0.041-3.4726-2.2826-7.3226-4.9813zm436.46 2.3181c47.615-61.897 128.73-90.496 146.92-51.8 8.1597 17.359-3.6899 26.489-30.109 23.199-39.585-4.93-78.184 4.0895-110.73 25.875-6.5544 4.3871-7.774 4.9345-6.0757 2.7268zm-452.38-58.02c-70.55-87.33-63.54-197.44 13.84-217.23 55.393-14.167 104.09 40.419 79.992 89.67-12.505 25.559-56.277 25.132-71.97-0.70126-8.3305-13.713-21.508-14.552-32.771-2.085-22.284 24.666-16.313 80.215 14.184 131.94 4.0702 6.903 3.2738 6.5159-3.2782-1.5934zm470.36 1.7911c30.619-51.929 36.625-107.42 14.3-132.13-11.263-12.467-24.44-11.628-32.771 2.085-15.693 25.833-59.465 26.26-71.97 0.70126-24.096-49.25 24.599-103.84 79.992-89.67 69.846 17.864 83.89 109.15 29.922 194.49-10.257 16.219-27.035 37.353-19.474 24.529zm-571.59-23.53c-1.5174-2.3159-1.5174-2.6841 0-5 2.9526-4.5062 8.592-2.7571 8.592 2.6648 0 4.9073-5.8626 6.5006-8.592 2.3352zm669.34 1.4199c-2.0102-1.1709-2.3487-5.9212-0.55-7.7199 3.9058-3.9058 10.434 1.6577 7.392 6.3-1.731 2.6418-3.9526 3.1028-6.842 1.4199zm-693.8-19.92c-4.1044-4.1044-1.3451-11 4.4017-11 1.9157 0 3.9792 0.76337 4.9433 1.8287 3.65 4.02 0.55 11.17-4.84 11.17-1.375 0-3.4-0.9-4.5-2zm716 0c-4.3029-4.3029-1.3975-11 4.772-11 5.578 0 8.2573 6.9707 4.228 11-1.1 1.1-3.125 2-4.5 2s-3.4-0.9-4.5-2zm-741.22-18.56c-5.5581-3.0163-6.377-8.9932-1.8521-13.518 7.293-7.293 18.35 0.84733 13.607 10.018-2.2516 4.3541-7.372 5.8786-11.755 3.5zm767.7 0.16286c-5.8024-2.5281-7.0452-9.1885-2.5527-13.681 7.0728-7.0728 18.748 1.3486 14.047 10.132-2.161 4.0377-6.9668 5.5214-11.495 3.5487zm-801.43-19.31c-10.197-5.3207-10.068-17.495 0.23929-22.62 9.6879-4.8169 20.867 6.2574 16.069 15.918-3.5141 7.0751-10.271 9.8516-16.308 6.7014zm833 0c-10.197-5.3207-10.068-17.495 0.2393-22.62 9.6879-4.8169 20.867 6.2574 16.069 15.918-3.5141 7.0751-10.271 9.8516-16.308 6.7014zm-868.86-21.28c-16.227-9.8935-2.1279-35.061 14.739-26.311 13.88 7.2006 8.676 28.298-6.9801 28.298-2.7302 0-5.7818-0.78151-7.7591-1.9871zm899 0c-13.671-8.3353-6.8699-29.075 9.0836-27.7 18.913 1.6298 17.661 29.688-1.3245 29.688-2.7302 0-5.7818-0.78151-7.7591-1.9871zm-941.98-14.67c-9.5644-4.7142-12.849-16.716-6.9483-25.385 8.6459-12.702 27.766-9.6599 31.726 5.048 3.8222 14.195-11.584 26.84-24.778 20.337zm984.31-0.56294c-15.7-9.16-9.7-32.78 8.4-32.78 17.178 0 24.281 21.131 10.608 31.559-5.1906 3.959-13.36 4.4827-18.982 1.2168zm-1037.2-14.41c-9.4282-3.3413-16.007-14.254-15.111-25.064 1.8228-21.981 32.391-29.034 44.057-10.165 11.978 19.374-7.341 42.886-28.946 35.229zm1089.8 0.3648c-9.8006-3.1362-16.974-14.676-15.856-25.507 2.2964-22.249 32.281-28.986 44.079-9.9032 11.656 18.853-6.963 42.213-28.222 35.41z"/>
</svg>
